<svg xmlns="http://www.w3.org/2000/svg" version="1.1" xmlns:xlink="http://www.w3.org/1999/xlink" xmlns:svgjs="http://svgjs.dev/svgjs" width="176.64" height="217.75"><svg xmlns="http://www.w3.org/2000/svg" viewBox="0 0 176.64 217.75"><g id="SvgjsG1050" data-name="Layer 2"><g id="SvgjsG1049" data-name="Layer 1"><path d="M36.65,12.46C53.07,1.28,74-2.1,93.38,1.22a59,59,0,0,1,30.16,14c11.1,9.38,18.59,23.42,18.55,38.14.44,7.6-1.56,15-2.47,22.46a29.77,29.77,0,0,1,22.59,7.84c11.43,10.71,16.09,27.42,13.91,42.71-.87,9.2-6.16,17.12-11.29,24.5-20.36,27.45-50.65,44.61-75.93,66.88C75,204.94,60.35,193,46.77,179.92c-16.81-16-32.36-34.35-40.49-56.41C-1.85,102.15-1.84,78,4.9,56.29A84.39,84.39,0,0,1,36.65,12.46ZM125.85,43C109.17,53.86,93.34,66.13,79.39,80.34,68.12,92.57,57.61,106.18,52.6,122.25a61.49,61.49,0,0,0-3.21,23.15C50.19,163,61.6,179.86,78,186.58c10,4.33,22.66,3.8,31.24-3.41,5.82-5.32,9-12.92,10.35-20.56a5.23,5.23,0,0,1,3.82-4.42c6.35-2.15,13.22-1.7,19.72-3.09,10.25-3.55,16.92-15.22,15.32-25.87-2.45-10.51-12.11-17.86-22.07-20.79-6.42-1.92-14.66-1.85-19.14,3.9-2.06,3-4.47,5.79-6.62,8.74-.85-1.51-4.23.08-6-.39.07,1.93.16,3.86.23,5.8-.26-2.11-.51-4.21-.83-6.3,0,1.8-.06,3.6-.06,5.41l-2.16,2.15-.18,5.74c-.93,1.79-2.38,3.52-2.52,5.59.73,2.25,3,3.38,4.78,4.74-.11,1.86.43,4.39-1.86,5.11-7.75,3.12-17,1.81-24.07-2.4-10.35-6.68-14.81-20.13-12.6-31.95.68-3.36,2.73-6.17,5-8.66,2.82-.23,6.06-1,8.46,1,5.18,3.77,10.1,8.47,16.51,10,5,.48,5.2-5.29,7.3-8.29a40.64,40.64,0,0,1,4.78-1.84,8,8,0,0,1,3.3-4.2,21.3,21.3,0,0,1,3.21-6.75c2.33.06,4.67.08,7,.08-.26-6.74-1.24-13.71.66-20.29,2.27-4.47,6.84-7.45,8.45-12.34a29.74,29.74,0,0,0,.69-21.78A10.24,10.24,0,0,0,125.85,43Z" fill="#2db1e6"></path></g></g></svg><style>@media (prefers-color-scheme: light) { :root { filter: none; } }
@media (prefers-color-scheme: dark) { :root { filter: none; } }
</style></svg>